<svg width="120" height="320" viewBox="0 0 120 320" fill="none" xmlns="http://www.w3.org/2000/svg">
<path d="M65.1335 260.022L76.3925 255.647C82.4808 253.28 87.35 251.167 87.35 250.891C87.35 250.887 87.3482 250.883 87.3455 250.879C87.1112 250.576 65.3188 242.013 65.3188 242.013V225.417L116.446 245.44V256.975C116.446 256.975 85.2835 269.287 85.165 269.237L116.054 282.089V293.509L65.1335 313.279L65.1428 296.763C65.1428 296.763 87.6162 287.716 87.6162 287.596C87.6162 287.595 87.6157 287.595 87.6153 287.595L65.1331 278.567V260.022H65.1335ZM61.5928 318.918L66.2731 317.101L117.193 297.33L119.591 296.399V293.508V282.089V279.264L117.265 278.296L95.8182 269.372C97.779 268.603 99.8923 267.772 102.004 266.941C109.811 263.868 117.604 260.789 117.604 260.789L119.984 259.849V256.974V245.439V242.557L117.595 241.621L66.4677 221.598L61.7812 219.763V225.417V242.013V244.893L64.1673 245.83C67.9858 247.331 73.0251 249.323 77.2902 251.026C76.6433 251.282 75.9632 251.55 75.2512 251.826L63.9926 256.201L61.5954 257.132V260.022L61.5954 278.567V281.426L63.959 282.375L77.0952 287.65C72.8031 289.392 67.8013 291.412 63.9657 292.956L61.6069 293.906L61.6052 296.76L61.5959 313.276L61.5928 318.918Z" fill="white" fill-opacity="0.25"/>
<path d="M64.9346 4.41737L78.3357 4.45522C78.3357 4.45522 78.2875 20.9272 78.2875 29.3017C78.2875 32.0876 78.2932 33.9774 78.3074 34.0672C78.5378 35.5104 81.2268 36.4293 82.4071 36.02C83.0041 35.8187 84.9542 34.3089 86.7451 32.6745C88.5365 31.0451 91.4683 28.3651 93.2584 26.7302C97.8489 22.5324 98.755 21.9566 101.391 21.5685C105.672 20.9378 110.306 23.2484 113.362 27.5376C116.426 31.8358 116.448 31.6476 116.448 63.5581C116.448 64.0203 116.448 64.484 116.448 64.9594C116.443 84.3667 116.302 94.6304 116.01 96.1246C115.484 98.7788 112.459 103.007 103.063 114.185C99.6858 118.205 96.7293 121.91 96.7284 122.1C96.7284 122.105 96.731 122.107 96.7354 122.107L116.449 122.239L116.378 140.354L65.5334 140.466V117.621V100.066C65.9185 87.8899 76.5487 79.6496 83.3277 81.2896C84.8662 81.663 87.0958 82.6117 88.2805 83.3993C90.7126 85.0191 93.8346 89.1418 95.1749 92.4879C95.6649 93.7237 96.2353 94.7329 96.4387 94.7329C97.1949 94.7329 100.706 90.6652 101.263 89.1418C101.74 87.8404 101.846 84.0503 101.846 67.3376C101.846 65.3787 101.847 63.5995 101.847 61.9847C101.847 45.1848 101.741 46.03 99.3086 44.7321C97.615 43.8233 96.6023 44.5147 90.2921 50.9081C83.2296 59.0075 79.8467 58.1593 77.3482 58.2148C74.3545 58.3304 64.936 55.6403 64.936 41.6575L64.9346 4.41737ZM88.4246 112.944C88.4246 105.188 88.3189 103.613 87.6906 101.963C85.568 96.392 79.2979 96.0943 76.5156 101.438C75.9049 102.608 75.8041 104.113 75.7638 112.519L75.7191 122.248C75.7855 122.167 87.9108 122.279 87.9108 122.279C87.9108 122.279 88.4246 119.842 88.4246 112.944ZM61.397 0.370918V4.41839V41.6586C61.397 49.7485 64.1953 54.5337 66.5429 57.1228C70.3605 61.3348 75.1677 62.3269 77.434 62.2507C77.6228 62.2466 77.8165 62.2491 78.0186 62.2517C81.7018 62.2885 85.8713 61.6694 92.7202 53.8454C94.2467 52.2988 96.8058 49.7111 98.0775 48.7332C98.3079 50.8717 98.3079 56.2922 98.3079 61.9852V64.4033L98.3071 67.3381C98.3071 77.3819 98.2818 85.8513 97.9816 87.5871C97.8427 87.8298 97.6039 88.1704 97.3192 88.5448C95.4464 85.0746 92.5438 81.5661 90.0617 79.914C88.5524 78.9113 85.9744 77.8057 84.0618 77.3415C79.8056 76.3121 74.6711 78.0101 70.3233 81.8835C65.2508 86.4028 62.2159 92.9773 61.9966 99.9213L61.994 99.9944V100.068V117.623V140.467V144.512L65.5391 144.504L116.384 144.393L119.899 144.384L119.914 140.373L119.984 122.258L120 118.227L116.468 118.204L104.658 118.126C104.966 117.756 105.285 117.373 105.615 116.981C115.892 104.755 118.74 100.652 119.46 97.0172C119.655 96.0186 119.978 94.3665 119.985 64.9629V63.5606C119.985 47.6422 119.985 39.6522 119.583 34.8993C119.122 29.4551 118.04 27.7041 116.167 25.0791L116.105 24.9918C112.263 19.6001 106.451 16.7551 100.937 17.5665C97.3506 18.0953 95.8608 19.1782 91.0456 23.5824L89.6128 24.8914C87.9329 26.4254 85.904 28.2789 84.5385 29.5212C83.4401 30.5234 82.465 31.3105 81.8265 31.7854C81.8251 31.1617 81.8242 30.3518 81.8242 29.3037C81.8242 21.0306 81.872 4.63485 81.8729 4.47035L81.8844 0.429436L78.3432 0.419334L64.9417 0.381512L61.397 0.370918ZM84.7578 118.216C83.8641 118.21 82.8621 118.204 81.8583 118.197C80.9739 118.192 80.0877 118.188 79.2758 118.186L79.3015 112.541C79.3169 109.297 79.3404 104.415 79.577 103.464C80.223 102.249 81.222 101.571 82.2567 101.645C82.8157 101.685 83.8434 101.989 84.4461 103.573C84.7822 104.456 84.887 105.864 84.887 112.944C84.887 115.189 84.8299 116.922 84.7578 118.216Z" fill="white" fill-opacity="0.25"/>
<path d="M64.7264 177.17L115.987 156.84L116.053 173.406L108.354 176.156L108.146 205.777L115.854 208.391L115.704 224.79L64.7485 204.717L64.7264 177.17ZM72.2421 190.493C72.3894 190.535 78.5299 193.088 84.6699 195.651C90.8608 198.234 97.0517 200.827 97.0999 200.862C97.1003 200.862 97.1003 200.863 97.1003 200.862C97.1003 200.862 97.1003 200.862 97.0999 200.862C97.0822 200.794 97.0645 191.62 97.0645 185.74C97.0645 182.989 97.0685 180.959 97.0773 180.921C97.0791 180.921 97.0795 180.921 97.0795 180.921C97.0795 180.921 97.0791 180.921 97.0782 180.921C97.0782 180.921 97.0782 180.921 97.0773 180.921C96.8434 181.024 72.5411 190.463 72.2421 190.493C72.2404 190.492 72.2395 190.492 72.2395 190.492C72.2395 190.493 72.2404 190.493 72.2421 190.493ZM61.1865 174.301L61.1887 177.173L61.2113 204.72L61.2135 207.594L63.5952 208.532L114.55 228.606L119.191 230.434L119.242 224.832L119.392 208.432L119.42 205.388L116.863 204.52L111.706 202.771L111.872 179.128L117.111 177.257L119.605 176.367L119.593 173.386L119.527 156.82L119.504 151.171L114.828 153.026L63.5674 173.357L61.1865 174.301ZM93.5304 195.052C91.7045 194.287 89.2366 193.257 85.8851 191.859C84.8344 191.421 83.8726 191.019 82.9908 190.652C83.8558 190.317 84.7968 189.953 85.8201 189.557C86.6629 189.231 90.3615 187.799 93.5268 186.57C93.5268 190.223 93.5273 192.973 93.5304 195.052Z" fill="white" fill-opacity="0.25"/>
<path d="M3.54296 170.318H16.1901L16.1901 199.222H54.8698V216.454H16.1591L16.2431 250.193C16.2431 254.26 19.0821 254.805 20.1699 254.805C21.5054 254.805 22.8408 253.811 28.8991 248.351C32.8347 244.808 36.7615 241.554 37.6194 241.125C42.3421 238.783 49.7004 241.811 52.6898 247.326C54.8181 251.257 54.8703 250.586 54.8703 279.777C54.8703 281.277 54.8703 282.853 54.8703 284.516V315.938H40.6622V266.537L39.7734 265.079C39.172 264.095 38.345 263.524 37.213 263.307C35.5857 263.005 35.3734 263.161 29.3506 269.262C22.231 276.473 20.9309 277.235 16.3851 276.861C11.198 276.437 3.66279 271.159 3.66279 261.935L3.54296 170.318ZM0 166.281L0.00530693 170.324L0.124701 261.941C0.124701 267.219 2.12259 272.12 5.75045 275.738C8.69201 278.672 12.5733 280.598 16.1321 280.888C22.1068 281.379 24.2656 279.81 31.6987 272.282C33.8553 270.097 35.9067 268.019 36.7779 267.326C36.8128 267.337 36.8353 267.347 36.8482 267.353C36.8535 267.361 36.8614 267.372 36.8712 267.389L37.1241 267.803V315.938V319.975H40.6617H54.8698H58.4075V315.938V284.516V282.025V279.777C58.4075 265.384 58.3956 258.28 58.1267 254.095C57.8194 249.306 57.0994 247.778 55.8537 245.49L55.6985 245.204C51.7978 238.007 42.5088 234.298 36.2087 237.422C34.2816 238.386 27.4769 244.488 26.7075 245.181C24.5818 247.096 21.0738 250.258 20.0585 250.759C19.9731 250.747 19.8847 250.723 19.8232 250.698C19.8047 250.614 19.7799 250.455 19.7799 250.193L19.706 220.491H54.869H58.4066V216.454V199.222V195.185H54.869H19.7268L19.7268 170.318V166.281H16.1892H3.54207H0V166.281Z" fill="white" fill-opacity="0.25"/>
<path d="M3.95318 123.359L55.3464 103.084L55.2668 119.62L47.568 122.304L47.453 151.793L54.8688 154.428V171.266L3.95318 151.213L3.95318 123.359V123.359ZM36.5089 146.98L36.4867 126.896C36.4867 126.896 36.4872 126.896 36.4872 126.896C36.4872 126.827 11.1925 136.656 11.1749 136.721C11.1726 136.793 36.5089 147.207 36.5089 146.98ZM0.415527 120.483L0.415527 123.359L0.415527 151.213L0.415527 154.09L2.79902 155.029L53.7151 175.082L58.4069 176.93V171.266V154.427V151.455L55.9204 150.572L51.0026 148.826L51.0941 125.295L56.3007 123.478L58.7899 122.61L58.8045 119.639L58.8841 103.103L58.9115 97.4028L54.1905 99.2653L2.79725 119.541L0.415527 120.483ZM32.965 141.372C29.8576 140.127 25.5992 138.393 21.7719 136.823C25.5943 135.336 29.8399 133.69 32.9553 132.49L32.965 141.372Z" fill="white" fill-opacity="0.25"/>
<path d="M3.95318 66.4148C3.95318 53.3348 4.11679 44.2573 4.38212 42.5114C4.99679 38.4745 6.885 34.8262 9.78588 32.0912C12.8194 29.23 14.2698 28.5741 18.4266 28.2007C24.2947 27.6653 29.3579 30.8498 32.6435 37.1322C33.6031 38.964 34.5362 40.8457 34.7219 41.3155C35.0093 42.0371 35.2835 41.9407 36.6101 40.6494C37.4636 39.8173 38.6796 38.3736 39.312 37.4451L40.4662 35.7496L40.8597 4.42345L54.8688 4.11614V23.3221C54.8688 38.1773 54.7494 42.9312 54.3382 44.3239C53.7191 46.408 49.9957 51.4233 41.4965 61.6174L35.4294 68.8939L54.8688 68.8172V87.5095H3.95318L3.95318 66.4148ZM26.8462 69.1689L26.8462 59.2427C26.8462 49.584 26.8197 49.2822 25.9131 47.9042C24.2947 45.4412 22.6275 44.5692 20.0672 44.8306C17.4272 45.098 16.0519 46.2586 14.9464 49.1707C14.3185 50.8107 14.2168 52.3906 14.2168 60.1313V69.1689H26.8462V69.1689ZM0.415527 66.4148L0.415527 87.5074L0.415527 91.5443H3.95318H54.8688H58.4065V87.5074V68.8152V64.7642L54.8564 64.7783L43.7058 64.8227L44.0591 64.3988C54.5717 51.7907 56.9596 48.0717 57.6883 45.6183C58.2451 43.7346 58.4065 40.5813 58.4065 23.3206V4.11463V1.87616e-05L54.8007 0.0787408L40.7916 0.386053L37.3716 0.46074L37.3225 4.3634L36.9462 34.3382L36.5186 34.9665C36.3819 35.1663 36.2015 35.4085 35.9972 35.6674C35.8805 35.4423 35.773 35.2364 35.6802 35.0583C31.7211 27.4876 25.3294 23.5199 18.1453 24.1744C13.2992 24.6099 11.116 25.5974 7.53239 28.9782C4.00845 32.3006 1.65193 36.8608 0.897089 41.8191C0.478319 44.5742 0.415527 58.4111 0.415527 66.4148ZM17.7544 65.132L17.7544 60.1313C17.7544 53.0532 17.8575 51.6509 18.1882 50.787C18.8109 49.147 19.1129 48.9805 20.3803 48.8518C21.6397 48.7226 22.1464 48.9008 23.083 50.3263C23.1135 50.3732 23.1374 50.409 23.1564 50.4388C23.309 51.3799 23.309 54.8723 23.309 59.2427L23.309 65.1315L17.7544 65.132Z" fill="white" fill-opacity="0.25"/>
</svg>
